<svg width="33" height="32" viewBox="0 0 33 32" fill="none" xmlns="http://www.w3.org/2000/svg">
<path fill-rule="evenodd" clip-rule="evenodd" d="M2.26858 13.7758C11.1269 9.25985 17.0339 6.28267 19.9894 4.84424C28.4282 0.737239 30.1817 0.0238091 31.3246 0.00025118C31.5759 -0.00493012 32.138 0.0679637 32.502 0.413632C32.8095 0.705508 32.894 1.09979 32.9345 1.37652C32.975 1.65325 33.0254 2.28365 32.9853 2.77623C32.528 8.3984 30.5493 22.0419 29.5427 28.3389C29.1167 31.0033 28.278 31.8967 27.466 31.9841C25.7014 32.1741 24.3614 30.6196 22.6523 29.3087C19.9779 27.2573 18.467 25.9804 15.871 23.9787C12.8709 21.6653 14.8157 20.3939 16.5255 18.316C16.9729 17.7722 24.7479 9.49735 24.8984 8.74669C24.9172 8.65281 24.9347 8.30286 24.757 8.11807C24.5793 7.93329 24.3171 7.99648 24.1278 8.04673C23.8596 8.11797 19.5872 11.4222 11.3105 17.9596C10.0978 18.9339 8.99937 19.4087 8.0152 19.3838C6.93024 19.3564 4.84321 18.666 3.29171 18.0759C1.38874 17.3521 -0.123705 16.9694 0.00799456 15.7402C0.076592 15.0999 0.83012 14.4451 2.26858 13.7758Z" fill="white"/>
</svg>
